<svg width="19" height="19" viewBox="0 0 19 19" fill="none" xmlns="http://www.w3.org/2000/svg">
<path d="M9.5 13C10.9497 13 12.125 11.8247 12.125 10.375C12.125 8.92525 10.9497 7.75 9.5 7.75C8.05025 7.75 6.875 8.92525 6.875 10.375C6.875 11.8247 8.05025 13 9.5 13Z" stroke="#BFA054" stroke-width="1.5"/>
<path d="M0.75 10.6935C0.75 8.01167 0.75 6.67117 1.40538 5.70867C1.69025 5.29041 2.05478 4.93242 2.47812 4.65517C3.10812 4.24129 3.89738 4.09342 5.10575 4.04092C5.68238 4.04092 6.1785 3.61217 6.29138 3.05654C6.37764 2.64955 6.60176 2.28482 6.92588 2.024C7.25 1.76317 7.65423 1.62225 8.07025 1.62504H10.9297C11.7942 1.62504 12.5389 2.22442 12.7086 3.05654C12.8215 3.61217 13.3176 4.04092 13.8942 4.04092C15.1017 4.09342 15.891 4.24217 16.5219 4.65517C16.9462 4.93342 17.3111 5.29129 17.5946 5.70867C18.25 6.67117 18.25 8.01167 18.25 10.6935C18.25 13.3754 18.25 14.715 17.5946 15.6784C17.3098 16.0967 16.9452 16.4547 16.5219 16.7319C15.541 17.375 14.1751 17.375 11.4443 17.375H7.55575C4.82487 17.375 3.459 17.375 2.47812 16.7319C2.05501 16.4543 1.69078 16.096 1.40625 15.6775C1.21615 15.3944 1.07615 15.0806 0.992375 14.75M15.625 7.75004H14.75" stroke="#BFA054" stroke-width="1.5" stroke-linecap="round"/>
</svg>
